<svg xmlns="http://www.w3.org/2000/svg" viewBox="0 0 200 200">
  <rect width="200" height="200" rx="24" fill="#7C3AED"/>
  <path d="M100 35 C75 35 60 60 60 85 C60 115 80 130 100 135 C120 130 140 115 140 85 C140 60 125 35 100 35Z" fill="#A78BFA"/>
  <path d="M100 50 C85 50 75 65 75 85 C75 105 85 115 100 118 C115 115 125 105 125 85 C125 65 115 50 100 50Z" fill="#7C3AED"/>
  <path d="M92 70 L92 100 M100 65 L100 105 M108 70 L108 100" stroke="white" stroke-width="3" stroke-linecap="round"/>
  <text x="100" y="170" text-anchor="middle" font-family="Arial Black, sans-serif" font-weight="900" font-size="26" fill="white" letter-spacing="1">UNIOIL</text>
</svg>
